<svg width="165" height="20" viewBox="0 0 165 20" fill="none" xmlns="http://www.w3.org/2000/svg">
<g clip-path="url(#clip0_1_2657)">
<path d="M0 10.0526V9.98948C0 4.50053 4.22414 0 10.2155 0C13.2759 0 15.2802 0.883281 17.0043 2.18717C17.3707 2.46057 17.694 2.92324 17.694 3.53312C17.694 4.4795 16.9397 5.19453 15.9698 5.19453C15.4957 5.19453 15.1509 5.02629 14.9138 4.85804C13.556 3.78549 12.0905 3.11251 10.194 3.11251C6.42241 3.11251 3.66379 6.1409 3.66379 9.92639V9.98948C3.66379 13.775 6.40086 16.8454 10.194 16.8454C12.2845 16.8454 13.7069 16.1724 15.1509 14.9947C15.4095 14.7634 15.7759 14.6162 16.2069 14.6162C17.0905 14.6162 17.8448 15.3312 17.8448 16.1935C17.8448 16.7192 17.5862 17.1399 17.2845 17.4132C15.4095 19.0116 13.2974 20 10.0862 20C4.31034 20 0 15.6046 0 10.0526Z" fill="#4148AC"/>
<path d="M27.1551 12.1556L20.3232 3.0073C20.0862 2.67081 19.9353 2.29226 19.9353 1.82959C19.9353 0.925276 20.6896 0.210239 21.681 0.210239C22.4353 0.210239 22.9525 0.630849 23.3836 1.24073L28.9008 9.00099L34.5043 1.2197C34.9353 0.609819 35.431 0.189209 36.1853 0.189209C37.1982 0.189209 37.8879 0.925276 37.8879 1.85062C37.8879 2.31329 37.6508 2.7339 37.4137 3.07039L30.6465 12.1135V18.1703C30.6465 19.1167 29.8922 19.8527 28.9008 19.8527C27.9094 19.8527 27.1767 19.1167 27.1767 18.1703V12.1976L27.1551 12.1556Z" fill="#4148AC"/>
<path d="M46.1423 3.491H41.3362C40.4311 3.491 39.7198 2.77596 39.7198 1.91371C39.7198 1.05146 40.4311 0.336426 41.3362 0.336426H54.5043C55.388 0.336426 56.0992 1.05146 56.0992 1.91371C56.0992 2.77596 55.388 3.491 54.5043 3.491H49.6552V18.1282C49.6552 19.0746 48.8578 19.8107 47.9095 19.8107C46.9612 19.8107 46.1638 19.0746 46.1638 18.1282V3.491H46.1423Z" fill="#4148AC"/>
<path d="M78.9655 17.4552L86.3362 1.43C86.7241 0.567755 87.4353 0.0419922 88.4267 0.0419922H88.5991C89.5905 0.0419922 90.2586 0.567755 90.6681 1.43L98.0388 17.4552C98.1897 17.7076 98.2328 17.96 98.2328 18.1703C98.2328 19.0746 97.5216 19.7896 96.5948 19.7896C95.7759 19.7896 95.2155 19.327 94.8922 18.6119L93.2759 14.9947H83.6422L81.9828 18.7171C81.7026 19.4111 81.0991 19.7896 80.3664 19.7896C79.4612 19.7896 78.75 19.0956 78.75 18.2123C78.75 17.96 78.8362 17.7076 78.9871 17.4342L78.9655 17.4552ZM91.9397 11.9873L88.4483 4.16397L84.9569 11.9873H91.9181H91.9397Z" fill="#4148AC"/>
<path d="M100.237 10.0526V9.98952C100.237 4.50056 104.461 -0.0209961 110.453 -0.0209961C113.513 -0.0209961 115.517 0.862285 117.241 2.16618C117.608 2.43957 117.931 2.90224 117.931 3.51213C117.931 4.4585 117.177 5.17354 116.207 5.17354C115.733 5.17354 115.388 5.00529 115.151 4.83705C113.793 3.76449 112.328 3.09152 110.431 3.09152C106.659 3.09152 103.901 6.11991 103.901 9.9054V9.96849C103.901 13.754 106.638 16.8244 110.431 16.8244C112.522 16.8244 113.944 16.1515 115.388 14.9737C115.647 14.7424 116.013 14.5952 116.444 14.5952C117.328 14.5952 118.082 15.3102 118.082 16.1725C118.082 16.6982 117.823 17.1189 117.522 17.3923C115.647 18.9906 113.534 19.979 110.323 19.979C104.547 19.979 100.237 15.5836 100.237 10.0316V10.0526Z" fill="#4148AC"/>
<path d="M120.582 10.0526V9.98952C120.582 4.54262 124.892 -0.0209961 130.97 -0.0209961C137.047 -0.0209961 141.293 4.47953 141.293 9.92643V9.98952C141.293 15.4364 136.983 20 130.905 20C124.828 20 120.582 15.4995 120.582 10.0526ZM137.651 10.0526V9.98952C137.651 6.22506 134.849 3.11255 130.905 3.11255C126.961 3.11255 124.224 6.183 124.224 9.92643V9.98952C124.224 13.754 127.026 16.8455 130.97 16.8455C134.914 16.8455 137.651 13.8171 137.651 10.0526Z" fill="#4148AC"/>
<path d="M145.517 1.93492C145.517 0.988543 146.272 0.231445 147.263 0.231445H147.629C148.384 0.231445 148.901 0.609994 149.246 1.13576L155.237 10.3051L161.272 1.11473C161.638 0.525872 162.155 0.231445 162.866 0.231445H163.233C164.224 0.231445 164.978 1.00957 164.978 1.93492V18.1284C164.978 19.0748 164.224 19.8108 163.233 19.8108C162.306 19.8108 161.509 19.0327 161.509 18.1284V6.51956L156.659 13.6279C156.293 14.1747 155.84 14.5111 155.194 14.5111C154.547 14.5111 154.116 14.1747 153.75 13.6279L148.944 6.58265V18.1494C148.944 19.0958 148.19 19.8108 147.22 19.8108C146.25 19.8108 145.517 19.0958 145.517 18.1494V1.93492Z" fill="#4148AC"/>
<path d="M75.8189 6.49836V6.43527C75.8189 4.75283 75.2155 3.32276 74.181 2.27123C72.9095 1.05146 70.9483 0.336426 68.4698 0.336426H61.4008C60.4095 0.336426 59.6552 1.07249 59.6552 2.0399V3.42791H68.2112C70.7974 3.42791 72.306 4.56355 72.306 6.62454V6.68763C72.306 8.64347 70.7112 9.92633 68.2327 9.92633H59.6552V18.1282C59.6552 19.0746 60.4095 19.8107 61.4008 19.8107C62.3922 19.8107 63.125 19.0746 63.125 18.1282V12.9337H67.5215L72.3276 18.9274C72.7155 19.4531 73.2327 19.8107 74.0301 19.8107C74.8707 19.8107 75.7112 19.1797 75.7112 18.2334C75.7112 17.7076 75.4741 17.3501 75.1508 16.9295L71.3577 12.2607C74.0086 11.4616 75.862 9.58984 75.862 6.47733L75.8189 6.49836Z" fill="#4148AC"/>
</g>
<defs>
<clipPath id="clip0_1_2657">
<rect width="165" height="20" fill="white"/>
</clipPath>
</defs>
</svg>
