<?xml version="1.0" standalone="no"?>
<!DOCTYPE svg PUBLIC "-//W3C//DTD SVG 20010904//EN"
 "http://www.w3.org/TR/2001/REC-SVG-20010904/DTD/svg10.dtd">
<svg version="1.0" xmlns="http://www.w3.org/2000/svg"
 width="256.000000pt" height="256.000000pt" viewBox="0 0 256.000000 256.000000"
 preserveAspectRatio="xMidYMid meet">
<metadata>
Created by potrace 1.14, written by Peter Selinger 2001-2017
</metadata>
<g transform="translate(0.000000,256.000000) scale(0.100000,-0.100000)"
fill="#000000" stroke="none">
<path d="M1130 2550 c-179 -23 -389 -98 -548 -196 -97 -60 -300 -261 -367
-363 -108 -164 -183 -381 -206 -588 -31 -292 58 -633 229 -873 60 -84 209
-233 294 -293 147 -105 354 -189 548 -223 114 -20 355 -14 465 10 158 36 344
114 463 195 86 58 232 200 304 295 97 128 184 323 224 501 24 110 30 351 10
465 -94 543 -477 942 -1008 1050 -118 24 -300 33 -408 20z m750 -721 c0 -31
-70 -136 -126 -188 -88 -83 -202 -131 -309 -131 -42 0 -26 53 -146 -513 l-93
-437 -34 0 c-47 0 -135 44 -173 87 -17 21 -40 56 -51 80 -37 84 -34 116 36
444 36 169 66 314 66 323 0 14 -24 16 -185 18 l-186 3 31 62 c61 122 169 211
299 245 57 14 121 17 469 17 288 1 402 -2 402 -10z"/>
</g>
</svg>
